<svg viewBox="-5 0 1050 400" xmlns="http://www.w3.org/2000/svg" xmlns:xlink="http://www.w3.org/1999/xlink" width="1024" height="400">\n<path  d="M 0 0
L 1024 0
L 1024 400
L 0 400
L 0 0" style="stroke-width:0;stroke:rgba(255,255,255,1.0);fill:rgba(255,255,255,1.0)"/><path  d="M 63 26
L 999 26
L 999 343
L 63 343
L 63 26" style="stroke-width:0;stroke:rgba(255,255,255,1.0);fill:rgba(255,255,255,1.0)"/><path  d="M 63 343
L 999 343" style="stroke-width:1;stroke:rgba(51,51,51,1.0);fill:none"/><path  d="M 63 343
L 63 348" style="stroke-width:1;stroke:rgba(51,51,51,1.0);fill:none"/><text x="48" y="368" style="stroke-width:0;stroke:none;fill:rgba(51,51,51,1.0);font-size:15.3px;font-family:'Roboto Medium',sans-serif">0.00</text><path  d="M 122 343
L 122 348" style="stroke-width:1;stroke:rgba(51,51,51,1.0);fill:none"/><text x="107" y="368" style="stroke-width:0;stroke:none;fill:rgba(51,51,51,1.0);font-size:15.3px;font-family:'Roboto Medium',sans-serif">0.63</text><path  d="M 180 343
L 180 348" style="stroke-width:1;stroke:rgba(51,51,51,1.0);fill:none"/><text x="165" y="368" style="stroke-width:0;stroke:none;fill:rgba(51,51,51,1.0);font-size:15.3px;font-family:'Roboto Medium',sans-serif">1.25</text><path  d="M 239 343
L 239 348" style="stroke-width:1;stroke:rgba(51,51,51,1.0);fill:none"/><text x="224" y="368" style="stroke-width:0;stroke:none;fill:rgba(51,51,51,1.0);font-size:15.3px;font-family:'Roboto Medium',sans-serif">1.88</text><path  d="M 297 343
L 297 348" style="stroke-width:1;stroke:rgba(51,51,51,1.0);fill:none"/><text x="282" y="368" style="stroke-width:0;stroke:none;fill:rgba(51,51,51,1.0);font-size:15.3px;font-family:'Roboto Medium',sans-serif">2.50</text><path  d="M 356 343
L 356 348" style="stroke-width:1;stroke:rgba(51,51,51,1.0);fill:none"/><text x="341" y="368" style="stroke-width:0;stroke:none;fill:rgba(51,51,51,1.0);font-size:15.3px;font-family:'Roboto Medium',sans-serif">3.13</text><path  d="M 414 343
L 414 348" style="stroke-width:1;stroke:rgba(51,51,51,1.0);fill:none"/><text x="399" y="368" style="stroke-width:0;stroke:none;fill:rgba(51,51,51,1.0);font-size:15.3px;font-family:'Roboto Medium',sans-serif">3.75</text><path  d="M 473 343
L 473 348" style="stroke-width:1;stroke:rgba(51,51,51,1.0);fill:none"/><text x="458" y="368" style="stroke-width:0;stroke:none;fill:rgba(51,51,51,1.0);font-size:15.3px;font-family:'Roboto Medium',sans-serif">4.38</text><path  d="M 531 343
L 531 348" style="stroke-width:1;stroke:rgba(51,51,51,1.0);fill:none"/><text x="516" y="368" style="stroke-width:0;stroke:none;fill:rgba(51,51,51,1.0);font-size:15.3px;font-family:'Roboto Medium',sans-serif">5.00</text><path  d="M 590 343
L 590 348" style="stroke-width:1;stroke:rgba(51,51,51,1.0);fill:none"/><text x="575" y="368" style="stroke-width:0;stroke:none;fill:rgba(51,51,51,1.0);font-size:15.3px;font-family:'Roboto Medium',sans-serif">5.63</text><path  d="M 648 343
L 648 348" style="stroke-width:1;stroke:rgba(51,51,51,1.0);fill:none"/><text x="633" y="368" style="stroke-width:0;stroke:none;fill:rgba(51,51,51,1.0);font-size:15.3px;font-family:'Roboto Medium',sans-serif">6.25</text><path  d="M 707 343
L 707 348" style="stroke-width:1;stroke:rgba(51,51,51,1.0);fill:none"/><text x="692" y="368" style="stroke-width:0;stroke:none;fill:rgba(51,51,51,1.0);font-size:15.3px;font-family:'Roboto Medium',sans-serif">6.88</text><path  d="M 765 343
L 765 348" style="stroke-width:1;stroke:rgba(51,51,51,1.0);fill:none"/><text x="750" y="368" style="stroke-width:0;stroke:none;fill:rgba(51,51,51,1.0);font-size:15.3px;font-family:'Roboto Medium',sans-serif">7.50</text><path  d="M 824 343
L 824 348" style="stroke-width:1;stroke:rgba(51,51,51,1.0);fill:none"/><text x="809" y="368" style="stroke-width:0;stroke:none;fill:rgba(51,51,51,1.0);font-size:15.3px;font-family:'Roboto Medium',sans-serif">8.13</text><path  d="M 882 343
L 882 348" style="stroke-width:1;stroke:rgba(51,51,51,1.0);fill:none"/><text x="867" y="368" style="stroke-width:0;stroke:none;fill:rgba(51,51,51,1.0);font-size:15.3px;font-family:'Roboto Medium',sans-serif">8.75</text><path  d="M 941 343
L 941 348" style="stroke-width:1;stroke:rgba(51,51,51,1.0);fill:none"/><text x="926" y="368" style="stroke-width:0;stroke:none;fill:rgba(51,51,51,1.0);font-size:15.3px;font-family:'Roboto Medium',sans-serif">9.38</text><path  d="M 999 343
L 999 348" style="stroke-width:1;stroke:rgba(51,51,51,1.0);fill:none"/><text x="979" y="368" style="stroke-width:0;stroke:none;fill:rgba(51,51,51,1.0);font-size:15.3px;font-family:'Roboto Medium',sans-serif">10.00</text><text x="510" y="395" style="stroke-width:0;stroke:none;fill:rgba(51,51,51,1.0);font-size:17.9px;font-family:'Roboto Medium',sans-serif">x-foo</text><path  d="M 62 343
L 62 26" style="stroke-width:1;stroke:rgba(51,51,51,1.0);fill:none"/><path  d="M 62 343
L 57 343" style="stroke-width:1;stroke:rgba(51,51,51,1.0);fill:none"/><text x="26" y="349" style="stroke-width:0;stroke:none;fill:rgba(51,51,51,1.0);font-size:12.8px;font-family:'Roboto Medium',sans-serif">0.00</text><path  d="M 62 297
L 57 297" style="stroke-width:1;stroke:rgba(51,51,51,1.0);fill:none"/><text x="26" y="303" style="stroke-width:0;stroke:none;fill:rgba(51,51,51,1.0);font-size:12.8px;font-family:'Roboto Medium',sans-serif">1.43</text><path  d="M 62 252
L 57 252" style="stroke-width:1;stroke:rgba(51,51,51,1.0);fill:none"/><text x="26" y="258" style="stroke-width:0;stroke:none;fill:rgba(51,51,51,1.0);font-size:12.8px;font-family:'Roboto Medium',sans-serif">2.86</text><path  d="M 62 207
L 57 207" style="stroke-width:1;stroke:rgba(51,51,51,1.0);fill:none"/><text x="26" y="213" style="stroke-width:0;stroke:none;fill:rgba(51,51,51,1.0);font-size:12.8px;font-family:'Roboto Medium',sans-serif">4.29</text><path  d="M 62 161
L 57 161" style="stroke-width:1;stroke:rgba(51,51,51,1.0);fill:none"/><text x="26" y="167" style="stroke-width:0;stroke:none;fill:rgba(51,51,51,1.0);font-size:12.8px;font-family:'Roboto Medium',sans-serif">5.72</text><path  d="M 62 116
L 57 116" style="stroke-width:1;stroke:rgba(51,51,51,1.0);fill:none"/><text x="26" y="122" style="stroke-width:0;stroke:none;fill:rgba(51,51,51,1.0);font-size:12.8px;font-family:'Roboto Medium',sans-serif">7.15</text><path  d="M 62 71
L 57 71" style="stroke-width:1;stroke:rgba(51,51,51,1.0);fill:none"/><text x="26" y="77" style="stroke-width:0;stroke:none;fill:rgba(51,51,51,1.0);font-size:12.8px;font-family:'Roboto Medium',sans-serif">8.58</text><path  d="M 62 26
L 57 26" style="stroke-width:1;stroke:rgba(51,51,51,1.0);fill:none"/><text x="19" y="32" style="stroke-width:0;stroke:none;fill:rgba(51,51,51,1.0);font-size:12.8px;font-family:'Roboto Medium',sans-serif">10.00</text><text x="9" y="163" style="stroke-width:0;stroke:none;fill:rgba(51,51,51,1.0);font-size:17.9px;font-family:'Roboto Medium',sans-serif" transform="rotate(270.00,9,163)">y-foo</text><path  d="M 63 343
L 531 26
L 999 343" style="stroke-width:1;stroke:rgba(0,0,0,1.0);fill:none"/></svg>