<svg viewBox="-5 0 1050 400" xmlns="http://www.w3.org/2000/svg" xmlns:xlink="http://www.w3.org/1999/xlink" width="1024" height="400">\n<path  d="M 0 0
L 1024 0
L 1024 400
L 0 400
L 0 0" style="stroke-width:0;stroke:rgba(255,255,255,1.0);fill:rgba(255,255,255,1.0)"/><path  d="M 63 26
L 999 26
L 999 370
L 63 370
L 63 26" style="stroke-width:0;stroke:rgba(255,255,255,1.0);fill:rgba(255,255,255,1.0)"/><path  d="M 63 370
L 999 370" style="stroke-width:1;stroke:rgba(51,51,51,1.0);fill:none"/><path  d="M 63 370
L 63 375" style="stroke-width:1;stroke:rgba(51,51,51,1.0);fill:none"/><text x="48" y="395" style="stroke-width:0;stroke:none;fill:rgba(51,51,51,1.0);font-size:15.3px;font-family:'Roboto Medium',sans-serif">0.00</text><path  d="M 122 370
L 122 375" style="stroke-width:1;stroke:rgba(51,51,51,1.0);fill:none"/><text x="107" y="395" style="stroke-width:0;stroke:none;fill:rgba(51,51,51,1.0);font-size:15.3px;font-family:'Roboto Medium',sans-serif">0.63</text><path  d="M 180 370
L 180 375" style="stroke-width:1;stroke:rgba(51,51,51,1.0);fill:none"/><text x="165" y="395" style="stroke-width:0;stroke:none;fill:rgba(51,51,51,1.0);font-size:15.3px;font-family:'Roboto Medium',sans-serif">1.25</text><path  d="M 239 370
L 239 375" style="stroke-width:1;stroke:rgba(51,51,51,1.0);fill:none"/><text x="224" y="395" style="stroke-width:0;stroke:none;fill:rgba(51,51,51,1.0);font-size:15.3px;font-family:'Roboto Medium',sans-serif">1.88</text><path  d="M 297 370
L 297 375" style="stroke-width:1;stroke:rgba(51,51,51,1.0);fill:none"/><text x="282" y="395" style="stroke-width:0;stroke:none;fill:rgba(51,51,51,1.0);font-size:15.3px;font-family:'Roboto Medium',sans-serif">2.50</text><path  d="M 356 370
L 356 375" style="stroke-width:1;stroke:rgba(51,51,51,1.0);fill:none"/><text x="341" y="395" style="stroke-width:0;stroke:none;fill:rgba(51,51,51,1.0);font-size:15.3px;font-family:'Roboto Medium',sans-serif">3.13</text><path  d="M 414 370
L 414 375" style="stroke-width:1;stroke:rgba(51,51,51,1.0);fill:none"/><text x="399" y="395" style="stroke-width:0;stroke:none;fill:rgba(51,51,51,1.0);font-size:15.3px;font-family:'Roboto Medium',sans-serif">3.75</text><path  d="M 473 370
L 473 375" style="stroke-width:1;stroke:rgba(51,51,51,1.0);fill:none"/><text x="458" y="395" style="stroke-width:0;stroke:none;fill:rgba(51,51,51,1.0);font-size:15.3px;font-family:'Roboto Medium',sans-serif">4.38</text><path  d="M 531 370
L 531 375" style="stroke-width:1;stroke:rgba(51,51,51,1.0);fill:none"/><text x="516" y="395" style="stroke-width:0;stroke:none;fill:rgba(51,51,51,1.0);font-size:15.3px;font-family:'Roboto Medium',sans-serif">5.00</text><path  d="M 590 370
L 590 375" style="stroke-width:1;stroke:rgba(51,51,51,1.0);fill:none"/><text x="575" y="395" style="stroke-width:0;stroke:none;fill:rgba(51,51,51,1.0);font-size:15.3px;font-family:'Roboto Medium',sans-serif">5.63</text><path  d="M 648 370
L 648 375" style="stroke-width:1;stroke:rgba(51,51,51,1.0);fill:none"/><text x="633" y="395" style="stroke-width:0;stroke:none;fill:rgba(51,51,51,1.0);font-size:15.3px;font-family:'Roboto Medium',sans-serif">6.25</text><path  d="M 707 370
L 707 375" style="stroke-width:1;stroke:rgba(51,51,51,1.0);fill:none"/><text x="692" y="395" style="stroke-width:0;stroke:none;fill:rgba(51,51,51,1.0);font-size:15.3px;font-family:'Roboto Medium',sans-serif">6.88</text><path  d="M 765 370
L 765 375" style="stroke-width:1;stroke:rgba(51,51,51,1.0);fill:none"/><text x="750" y="395" style="stroke-width:0;stroke:none;fill:rgba(51,51,51,1.0);font-size:15.3px;font-family:'Roboto Medium',sans-serif">7.50</text><path  d="M 824 370
L 824 375" style="stroke-width:1;stroke:rgba(51,51,51,1.0);fill:none"/><text x="809" y="395" style="stroke-width:0;stroke:none;fill:rgba(51,51,51,1.0);font-size:15.3px;font-family:'Roboto Medium',sans-serif">8.13</text><path  d="M 882 370
L 882 375" style="stroke-width:1;stroke:rgba(51,51,51,1.0);fill:none"/><text x="867" y="395" style="stroke-width:0;stroke:none;fill:rgba(51,51,51,1.0);font-size:15.3px;font-family:'Roboto Medium',sans-serif">8.75</text><path  d="M 941 370
L 941 375" style="stroke-width:1;stroke:rgba(51,51,51,1.0);fill:none"/><text x="926" y="395" style="stroke-width:0;stroke:none;fill:rgba(51,51,51,1.0);font-size:15.3px;font-family:'Roboto Medium',sans-serif">9.38</text><path  d="M 999 370
L 999 375" style="stroke-width:1;stroke:rgba(51,51,51,1.0);fill:none"/><text x="979" y="395" style="stroke-width:0;stroke:none;fill:rgba(51,51,51,1.0);font-size:15.3px;font-family:'Roboto Medium',sans-serif">10.00</text><path  d="M 122 370
L 122 26" style="stroke-width:1;stroke:rgba(0,0,0,0.3);fill:none"/><path  d="M 180 370
L 180 26" style="stroke-width:1;stroke:rgba(0,0,0,0.1);fill:none"/><path  d="M 239 370
L 239 26" style="stroke-width:1;stroke:rgba(0,0,0,0.3);fill:none"/><path  d="M 297 370
L 297 26" style="stroke-width:1;stroke:rgba(0,0,0,0.1);fill:none"/><path  d="M 356 370
L 356 26" style="stroke-width:1;stroke:rgba(0,0,0,0.3);fill:none"/><path  d="M 414 370
L 414 26" style="stroke-width:1;stroke:rgba(0,0,0,0.1);fill:none"/><path  d="M 473 370
L 473 26" style="stroke-width:1;stroke:rgba(0,0,0,0.3);fill:none"/><path  d="M 531 370
L 531 26" style="stroke-width:1;stroke:rgba(0,0,0,0.1);fill:none"/><path  d="M 590 370
L 590 26" style="stroke-width:1;stroke:rgba(0,0,0,0.3);fill:none"/><path  d="M 648 370
L 648 26" style="stroke-width:1;stroke:rgba(0,0,0,0.1);fill:none"/><path  d="M 707 370
L 707 26" style="stroke-width:1;stroke:rgba(0,0,0,0.3);fill:none"/><path  d="M 765 370
L 765 26" style="stroke-width:1;stroke:rgba(0,0,0,0.1);fill:none"/><path  d="M 824 370
L 824 26" style="stroke-width:1;stroke:rgba(0,0,0,0.3);fill:none"/><path  d="M 882 370
L 882 26" style="stroke-width:1;stroke:rgba(0,0,0,0.1);fill:none"/><path  d="M 941 370
L 941 26" style="stroke-width:1;stroke:rgba(0,0,0,0.3);fill:none"/><path  d="M 62 370
L 62 26" style="stroke-width:1;stroke:rgba(51,51,51,1.0);fill:none"/><path  d="M 62 370
L 57 370" style="stroke-width:1;stroke:rgba(51,51,51,1.0);fill:none"/><text x="26" y="376" style="stroke-width:0;stroke:none;fill:rgba(51,51,51,1.0);font-size:12.8px;font-family:'Roboto Medium',sans-serif">0.00</text><path  d="M 62 327
L 57 327" style="stroke-width:1;stroke:rgba(51,51,51,1.0);fill:none"/><text x="26" y="333" style="stroke-width:0;stroke:none;fill:rgba(51,51,51,1.0);font-size:12.8px;font-family:'Roboto Medium',sans-serif">1.25</text><path  d="M 62 284
L 57 284" style="stroke-width:1;stroke:rgba(51,51,51,1.0);fill:none"/><text x="26" y="290" style="stroke-width:0;stroke:none;fill:rgba(51,51,51,1.0);font-size:12.8px;font-family:'Roboto Medium',sans-serif">2.50</text><path  d="M 62 241
L 57 241" style="stroke-width:1;stroke:rgba(51,51,51,1.0);fill:none"/><text x="26" y="247" style="stroke-width:0;stroke:none;fill:rgba(51,51,51,1.0);font-size:12.8px;font-family:'Roboto Medium',sans-serif">3.75</text><path  d="M 62 198
L 57 198" style="stroke-width:1;stroke:rgba(51,51,51,1.0);fill:none"/><text x="26" y="204" style="stroke-width:0;stroke:none;fill:rgba(51,51,51,1.0);font-size:12.8px;font-family:'Roboto Medium',sans-serif">5.00</text><path  d="M 62 155
L 57 155" style="stroke-width:1;stroke:rgba(51,51,51,1.0);fill:none"/><text x="26" y="161" style="stroke-width:0;stroke:none;fill:rgba(51,51,51,1.0);font-size:12.8px;font-family:'Roboto Medium',sans-serif">6.25</text><path  d="M 62 112
L 57 112" style="stroke-width:1;stroke:rgba(51,51,51,1.0);fill:none"/><text x="26" y="118" style="stroke-width:0;stroke:none;fill:rgba(51,51,51,1.0);font-size:12.8px;font-family:'Roboto Medium',sans-serif">7.50</text><path  d="M 62 69
L 57 69" style="stroke-width:1;stroke:rgba(51,51,51,1.0);fill:none"/><text x="26" y="75" style="stroke-width:0;stroke:none;fill:rgba(51,51,51,1.0);font-size:12.8px;font-family:'Roboto Medium',sans-serif">8.75</text><path  d="M 62 26
L 57 26" style="stroke-width:1;stroke:rgba(51,51,51,1.0);fill:none"/><text x="19" y="32" style="stroke-width:0;stroke:none;fill:rgba(51,51,51,1.0);font-size:12.8px;font-family:'Roboto Medium',sans-serif">10.00</text><path  d="M 63 327
L 999 327" style="stroke-width:1;stroke:rgba(0,0,0,0.3);fill:none"/><path  d="M 63 284
L 999 284" style="stroke-width:1;stroke:rgba(0,0,0,0.1);fill:none"/><path  d="M 63 241
L 999 241" style="stroke-width:1;stroke:rgba(0,0,0,0.3);fill:none"/><path  d="M 63 198
L 999 198" style="stroke-width:1;stroke:rgba(0,0,0,0.1);fill:none"/><path  d="M 63 155
L 999 155" style="stroke-width:1;stroke:rgba(0,0,0,0.3);fill:none"/><path  d="M 63 112
L 999 112" style="stroke-width:1;stroke:rgba(0,0,0,0.1);fill:none"/><path  d="M 63 69
L 999 69" style="stroke-width:1;stroke:rgba(0,0,0,0.3);fill:none"/><path  d="M 63 370
L 531 26
L 999 370" style="stroke-width:1;stroke:rgba(0,0,0,1.0);fill:none"/></svg>